<svg width="26" height="26" viewBox="0 0 26 26" fill="none" xmlns="http://www.w3.org/2000/svg">
<path d="M13 10.0234C12.4113 10.0237 11.836 10.1984 11.3466 10.5256C10.8573 10.8528 10.4759 11.3178 10.2508 11.8617C10.0257 12.4056 9.96691 13.0041 10.0819 13.5814C10.1969 14.1587 10.4804 14.689 10.8968 15.1051C11.3131 15.5213 11.8435 15.8047 12.4208 15.9195C12.9982 16.0342 13.5966 15.9752 14.1405 15.7499C14.6843 15.5246 15.1491 15.143 15.4761 14.6536C15.8031 14.1641 15.9777 13.5887 15.9777 13C15.9771 12.2106 15.6631 11.4536 15.1048 10.8955C14.5465 10.3374 13.7894 10.0237 13 10.0234ZM19.9593 7.73549C19.8077 7.35147 19.5789 7.00269 19.287 6.71077C18.9951 6.41886 18.6463 6.19004 18.2623 6.0385C17.0904 5.57589 14.3002 5.67969 13 5.67969C11.6998 5.67969 8.91239 5.57199 7.73717 6.0385C7.35315 6.19004 7.00436 6.41886 6.71245 6.71077C6.42053 7.00269 6.19171 7.35147 6.04018 7.73549C5.57812 8.90737 5.68136 11.7003 5.68136 12.9994C5.68136 14.2985 5.57812 17.0882 6.04241 18.264C6.19394 18.648 6.42276 18.9968 6.71468 19.2887C7.0066 19.5806 7.35538 19.8094 7.7394 19.9609C8.91127 20.4235 11.7015 20.3198 13.0022 20.3198C14.303 20.3198 17.0893 20.4275 18.2645 19.9609C18.6485 19.8094 18.9973 19.5806 19.2892 19.2887C19.5811 18.9968 19.81 18.648 19.9615 18.264C20.4275 17.0921 20.3203 14.2991 20.3203 13C20.3203 11.7009 20.4275 8.91183 19.9615 7.73605L19.9593 7.73549ZM13 17.5759C12.095 17.5759 11.2103 17.3075 10.4578 16.8047C9.70527 16.3019 9.11876 15.5873 8.77243 14.7511C8.42609 13.915 8.33547 12.9949 8.51203 12.1073C8.68859 11.2197 9.1244 10.4043 9.76435 9.76435C10.4043 9.1244 11.2197 8.68859 12.1073 8.51203C12.9949 8.33547 13.915 8.42609 14.7511 8.77243C15.5873 9.11876 16.3019 9.70527 16.8047 10.4578C17.3075 11.2103 17.5759 12.095 17.5759 13C17.5766 13.6011 17.4588 14.1965 17.2291 14.752C16.9994 15.3075 16.6623 15.8122 16.2373 16.2373C15.8122 16.6623 15.3075 16.9994 14.752 17.2291C14.1965 17.4588 13.6011 17.5766 13 17.5759ZM17.7645 9.30022C17.5532 9.30033 17.3467 9.23779 17.171 9.12049C16.9952 9.00319 16.8583 8.83642 16.7773 8.64127C16.6964 8.44611 16.6752 8.23134 16.7163 8.02411C16.7575 7.81689 16.8592 7.62652 17.0085 7.47709C17.1579 7.32766 17.3482 7.22588 17.5554 7.18463C17.7626 7.14337 17.9774 7.16449 18.1726 7.24531C18.3678 7.32614 18.5346 7.46303 18.652 7.63869C18.7694 7.81435 18.832 8.02087 18.832 8.23214C18.8326 8.37244 18.8055 8.51147 18.7522 8.64127C18.699 8.77106 18.6206 8.88906 18.5216 8.9885C18.4227 9.08794 18.305 9.16686 18.1755 9.22074C18.0459 9.27461 17.907 9.30238 17.7667 9.30246L17.7645 9.30022ZM22.8214 0.5H3.17857C2.46817 0.5 1.78686 0.782206 1.28454 1.28454C0.782206 1.78687 0.5 2.46817 0.5 3.17857L0.5 22.8214C0.5 23.5318 0.782206 24.2131 1.28454 24.7155C1.78686 25.2178 2.46817 25.5 3.17857 25.5H22.8214C23.5318 25.5 24.2131 25.2178 24.7155 24.7155C25.2178 24.2131 25.5 23.5318 25.5 22.8214V3.17857C25.5 2.46817 25.2178 1.78687 24.7155 1.28454C24.2131 0.782206 23.5318 0.5 22.8214 0.5ZM21.8661 16.683C21.7941 18.1133 21.4676 19.3806 20.4235 20.4219C19.3795 21.4632 18.1133 21.7963 16.6847 21.8644C15.2109 21.9475 10.7924 21.9475 9.31864 21.8644C7.88839 21.7924 6.62556 21.4654 5.5798 20.4219C4.53404 19.3783 4.20536 18.1105 4.13728 16.683C4.05413 15.2087 4.05413 10.7896 4.13728 9.31696C4.20926 7.88672 4.53181 6.61942 5.5798 5.57812C6.62779 4.53683 7.89397 4.20759 9.31864 4.13951C10.7924 4.05636 15.2109 4.05636 16.6847 4.13951C18.115 4.2115 19.3817 4.5385 20.4235 5.58203C21.4654 6.62556 21.798 7.89341 21.8661 9.32366C21.9492 10.7924 21.9492 15.2076 21.8661 16.683Z" fill="white"/>
</svg>
