<svg width="27" height="45" viewBox="0 0 27 45" fill="none" xmlns="http://www.w3.org/2000/svg">
<path d="M20.9218 43.4151L0.912439 23.8706C0.674939 23.6379 0.506314 23.3859 0.406564 23.1144C0.306814 22.843 0.257731 22.5521 0.259314 22.2419C0.259314 21.9317 0.308397 21.6408 0.406564 21.3694C0.504731 21.0979 0.673355 20.8459 0.912439 20.6132L20.9218 1.01052C21.476 0.467618 22.1687 0.196167 22.9999 0.196167C23.8312 0.196167 24.5437 0.487008 25.1374 1.06869C25.7312 1.65037 26.0281 2.329 26.0281 3.10458C26.0281 3.88015 25.7312 4.55878 25.1374 5.14046L7.68119 22.2419L25.1374 39.3434C25.6916 39.8863 25.9687 40.5556 25.9687 41.3513C25.9687 42.1471 25.6718 42.835 25.0781 43.4151C24.4843 43.9968 23.7916 44.2877 22.9999 44.2877C22.2083 44.2877 21.5156 43.9968 20.9218 43.4151Z" fill="#C7C7C7"/>
</svg>
