<svg width="26" height="26" viewBox="0 0 26 26" fill="none" xmlns="http://www.w3.org/2000/svg">
<path fill-rule="evenodd" clip-rule="evenodd" d="M0.5 2.58864C0.5 2.0347 0.720052 1.50345 1.11175 1.11175C1.50344 0.720055 2.0347 0.500003 2.58864 0.500003H23.4091C23.6836 0.499554 23.9555 0.553256 24.2092 0.658033C24.463 0.76281 24.6936 0.916605 24.8878 1.11061C25.082 1.30462 25.236 1.53503 25.3411 1.78865C25.4461 2.04227 25.5001 2.31412 25.5 2.58864V23.4091C25.5003 23.6837 25.4465 23.9556 25.3416 24.2093C25.2367 24.4631 25.0828 24.6936 24.8887 24.8879C24.6946 25.0821 24.4641 25.2361 24.2104 25.3411C23.9567 25.4462 23.6848 25.5001 23.4102 25.5H2.58864C2.31426 25.5 2.04257 25.4459 1.78909 25.3409C1.53561 25.2359 1.30531 25.0819 1.11135 24.8879C0.917383 24.6938 0.763559 24.4634 0.658662 24.2099C0.553765 23.9563 0.499851 23.6846 0.5 23.4102V2.58864ZM10.3955 10.0318H13.7807V11.7318C14.2693 10.7545 15.5193 9.875 17.3977 9.875C20.9989 9.875 21.8523 11.8216 21.8523 15.3932V22.0091H18.208V16.2068C18.208 14.1727 17.7193 13.025 16.4784 13.025C14.7568 13.025 14.0409 14.2625 14.0409 16.2068V22.0091H10.3955V10.0318ZM4.14545 21.8534H7.79091V9.875H4.14545V21.8523V21.8534ZM8.3125 5.96818C8.31937 6.28031 8.26383 6.59067 8.14914 6.88104C8.03444 7.17141 7.8629 7.43595 7.64458 7.65913C7.42626 7.88231 7.16557 8.05963 6.87779 8.18069C6.59001 8.30175 6.28095 8.36411 5.96875 8.36411C5.65655 8.36411 5.34749 8.30175 5.05971 8.18069C4.77193 8.05963 4.51124 7.88231 4.29292 7.65913C4.0746 7.43595 3.90306 7.17141 3.78836 6.88104C3.67367 6.59067 3.61813 6.28031 3.625 5.96818C3.63849 5.35552 3.89135 4.77249 4.32942 4.34396C4.76748 3.91544 5.35594 3.67548 5.96875 3.67548C6.58156 3.67548 7.17002 3.91544 7.60808 4.34396C8.04615 4.77249 8.29901 5.35552 8.3125 5.96818Z" fill="white"/>
</svg>
