<svg width="16" height="20" viewBox="0 0 16 20" fill="none" xmlns="http://www.w3.org/2000/svg">
<path d="M7.99999 0.375C5.99502 0.377365 4.07284 1.17489 2.65511 2.59262C1.23738 4.01035 0.439858 5.93253 0.437493 7.9375C0.435091 9.57597 0.970292 11.17 1.96099 12.475C1.96099 12.475 2.16724 12.7466 2.20093 12.7858L7.99999 19.625L13.8018 12.7823C13.8321 12.7459 14.039 12.475 14.039 12.475L14.0397 12.4729C15.0299 11.1685 15.5648 9.57521 15.5625 7.9375C15.5601 5.93253 14.7626 4.01035 13.3449 2.59262C11.9271 1.17489 10.005 0.377365 7.99999 0.375ZM7.99999 10.6875C7.45609 10.6875 6.92441 10.5262 6.47217 10.224C6.01994 9.92187 5.66746 9.49238 5.45932 8.98988C5.25118 8.48738 5.19672 7.93445 5.30283 7.401C5.40894 6.86755 5.67085 6.37755 6.05545 5.99296C6.44004 5.60836 6.93005 5.34645 7.46349 5.24034C7.99694 5.13423 8.54988 5.18869 9.05237 5.39683C9.55487 5.60497 9.98436 5.95745 10.2865 6.40968C10.5887 6.86192 10.75 7.3936 10.75 7.9375C10.7491 8.66657 10.4591 9.36551 9.94353 9.88104C9.428 10.3966 8.72906 10.6866 7.99999 10.6875Z" fill="#138641"/>
</svg>
