<svg width="115" height="115" viewBox="0 0 115 115" fill="none" xmlns="http://www.w3.org/2000/svg">
<path d="M81.4583 57.5V14.375C81.4583 13.1042 80.9534 11.8854 80.0548 10.9868C79.1562 10.0881 77.9374 9.58331 76.6666 9.58331H14.3749C13.1041 9.58331 11.8853 10.0881 10.9867 10.9868C10.0881 11.8854 9.58325 13.1042 9.58325 14.375V81.4583L28.7499 62.2916H76.6666C77.9374 62.2916 79.1562 61.7868 80.0548 60.8882C80.9534 59.9896 81.4583 58.7708 81.4583 57.5ZM100.625 28.75H91.0416V71.875H28.7499V81.4583C28.7499 82.7291 29.2548 83.9479 30.1534 84.8465C31.052 85.7452 32.2708 86.25 33.5416 86.25H86.2499L105.417 105.417V33.5416C105.417 32.2708 104.912 31.052 104.013 30.1534C103.115 29.2548 101.896 28.75 100.625 28.75Z" fill="#222A2E"/>
</svg>
