<svg width="19" height="19" viewBox="0 0 19 19" fill="none" xmlns="http://www.w3.org/2000/svg">
<path d="M10.0833 1.83333C11.7851 1.83333 13.4172 2.50937 14.6206 3.71273C15.824 4.91609 16.5 6.54819 16.5 8.25C16.5 8.49312 16.5966 8.72627 16.7685 8.89818C16.9404 9.07009 17.1736 9.16667 17.4167 9.16667C17.6598 9.16667 17.8929 9.07009 18.0648 8.89818C18.2368 8.72627 18.3333 8.49312 18.3333 8.25C18.3333 6.06196 17.4641 3.96354 15.917 2.41637C14.3698 0.869194 12.2714 0 10.0833 0C9.84022 0 9.60706 0.0965771 9.43515 0.268485C9.26324 0.440394 9.16667 0.673552 9.16667 0.916667C9.16667 1.15978 9.26324 1.39294 9.43515 1.56485C9.60706 1.73676 9.84022 1.83333 10.0833 1.83333ZM18.1042 12.7508C18.0537 12.6037 17.9667 12.4718 17.8512 12.3675C17.7358 12.2633 17.5957 12.1902 17.4442 12.155L11.9442 10.8992C11.7949 10.8653 11.6395 10.8694 11.4922 10.911C11.3449 10.9527 11.2103 11.0305 11.1008 11.1375C10.9725 11.2567 10.9633 11.2658 10.3675 12.4025C8.39043 11.4915 6.80624 9.90079 5.90333 7.92C7.0675 7.33333 7.07667 7.33333 7.19583 7.19583C7.30282 7.08634 7.38068 6.9518 7.42231 6.80449C7.46394 6.65718 7.46802 6.50179 7.43417 6.3525L6.17833 0.916667C6.14318 0.765138 6.07004 0.625048 5.9658 0.509586C5.86156 0.394123 5.72966 0.307085 5.5825 0.256667C5.36843 0.180207 5.14737 0.124942 4.9225 0.0916666C4.69081 0.0379456 4.45439 0.00724106 4.21667 0C3.09834 0 2.02581 0.444255 1.23503 1.23503C0.444255 2.02581 0 3.09834 0 4.21667C0.00485092 7.95915 1.4937 11.547 4.14003 14.1933C6.78637 16.8396 10.3742 18.3285 14.1167 18.3333C14.6704 18.3333 15.2187 18.2243 15.7303 18.0124C16.2419 17.8005 16.7067 17.4899 17.0983 17.0983C17.4899 16.7067 17.8005 16.2419 18.0124 15.7303C18.2243 15.2187 18.3333 14.6704 18.3333 14.1167C18.3336 13.8833 18.3152 13.6504 18.2783 13.42C18.2398 13.1923 18.1815 12.9684 18.1042 12.7508Z" fill="#FF3838"/>
</svg>
