<svg width="27" height="45" viewBox="0 0 27 45" fill="none" xmlns="http://www.w3.org/2000/svg">
<path d="M6.07819 43.4151L26.0876 23.8706C26.3251 23.6379 26.4937 23.3859 26.5934 23.1144C26.6932 22.843 26.7423 22.5521 26.7407 22.2419C26.7407 21.9317 26.6916 21.6408 26.5934 21.3694C26.4953 21.0979 26.3266 20.8459 26.0876 20.6132L6.07819 1.01052C5.52402 0.467618 4.83131 0.196167 4.00006 0.196167C3.16881 0.196167 2.45631 0.487008 1.86256 1.06869C1.26881 1.65037 0.971938 2.329 0.971938 3.10458C0.971938 3.88015 1.26881 4.55878 1.86256 5.14046L19.3188 22.2419L1.86256 39.3434C1.3084 39.8863 1.03131 40.5556 1.03131 41.3513C1.03131 42.1471 1.32819 42.835 1.92194 43.4151C2.51569 43.9968 3.2084 44.2877 4.00006 44.2877C4.79173 44.2877 5.48444 43.9968 6.07819 43.4151Z" fill="#C7C7C7"/>
</svg>
