<svg width="99" height="99" viewBox="0 0 99 99" fill="none" xmlns="http://www.w3.org/2000/svg">
<path d="M40.1563 45.8252L6.27917 79.7023C5.38815 80.5924 4.68129 81.6493 4.19901 82.8127C3.71674 83.9761 3.46851 85.2231 3.46851 86.4825C3.46851 87.7419 3.71674 88.989 4.19901 90.1524C4.68129 91.3158 5.38815 92.3727 6.27917 93.2627C8.07631 95.0593 10.5134 96.0686 13.0546 96.0686C15.5957 96.0686 18.0329 95.0593 19.83 93.2627L53.7071 59.3761M74.3831 61.125L92.9652 79.7071C94.7618 81.5043 95.7711 83.9414 95.7711 86.4825C95.7711 89.0237 94.7618 91.4608 92.9652 93.258C91.1681 95.0546 88.731 96.0638 86.1898 96.0638C83.6486 96.0638 81.2115 95.0546 79.4144 93.258L49.6629 63.5113M24.2623 23.29L14.0896 26.6729L3.93125 9.7344L10.7067 2.95898L27.65 13.1221L24.2623 23.29ZM24.2623 23.29L37.8227 36.8504" stroke="#222A2E" stroke-width="5" stroke-linecap="round" stroke-linejoin="round"/>
<path d="M40.1562 45.8252C36.1121 35.5088 36.9027 21.9723 45.2402 13.6348C53.5777 5.29729 68.9589 3.47167 77.4258 8.55562L62.8591 23.1223L61.5031 38.0292L76.41 36.6779L90.9766 22.1065C96.0654 30.5781 94.235 45.9594 85.8975 54.2921C77.56 62.6296 64.0283 63.4202 53.7118 59.376" stroke="#222A2E" stroke-width="5" stroke-linecap="round" stroke-linejoin="round"/>
</svg>
