<svg width="97" height="99" viewBox="0 0 97 99" fill="none" xmlns="http://www.w3.org/2000/svg">
<mask id="mask0_1_255" style="mask-type:luminance" maskUnits="userSpaceOnUse" x="0" y="0" width="97" height="99">
<path d="M23.3439 87.324C30.5121 92.9705 39.3751 96.0346 48.5002 96.0208C57.9949 96.0208 66.7325 92.7721 73.6564 87.324M36.521 16.3522C19.8724 21.4673 7.771 36.9659 7.771 55.2917C7.771 59.9036 8.53766 64.3359 9.9512 68.4687M60.4793 16.3522C77.128 21.4673 89.2293 36.9659 89.2293 55.2917C89.2293 59.9036 88.4627 64.3359 87.0491 68.4687" stroke="white" stroke-width="4"/>
<path d="M94.0209 79.25C94.0209 82.4652 92.7559 85.3833 90.6955 87.5348C88.7714 89.545 86.2075 90.8226 83.444 91.1483C80.6805 91.474 77.8898 90.8275 75.551 89.3198C73.2123 87.8121 71.4714 85.5372 70.6272 82.8857C69.783 80.2343 69.8882 77.3716 70.9247 74.7892C71.9612 72.2069 73.8644 70.0659 76.3075 68.7339C78.7506 67.4019 81.5813 66.962 84.3134 67.4897C87.0455 68.0174 89.5087 69.4797 91.2801 71.6257C93.0515 73.7717 94.0206 76.4674 94.0209 79.25ZM26.9376 79.25C26.9376 82.4652 25.6726 85.3833 23.6122 87.5348C21.6881 89.545 19.1242 90.8226 16.3607 91.1483C13.5972 91.474 10.8065 90.8275 8.46771 89.3198C6.12896 87.8121 4.38803 85.5372 3.54384 82.8857C2.69964 80.2343 2.80484 77.3716 3.84137 74.7892C4.8779 72.2069 6.7811 70.0659 9.22421 68.7339C11.6673 67.4019 14.4979 66.962 17.2301 67.4897C19.9622 68.0174 22.4254 69.4797 24.1968 71.6257C25.9682 73.7717 26.9372 76.4674 26.9376 79.25ZM60.4792 14.5625C60.4792 17.7777 59.2142 20.6958 57.1538 22.8473C55.2297 24.8575 52.6658 26.1351 49.9023 26.4608C47.1388 26.7865 44.3481 26.14 42.0094 24.6323C39.6706 23.1246 37.9297 20.8497 37.0855 18.1982C36.2413 15.5468 36.3465 12.6841 37.383 10.1017C38.4196 7.51938 40.3228 5.37842 42.7659 4.04642C45.209 2.71443 48.0396 2.27451 50.7717 2.80219C53.5039 3.32987 55.9671 4.79223 57.7385 6.9382C59.5098 9.08417 60.4789 11.7799 60.4792 14.5625Z" fill="#555555" stroke="white" stroke-width="4" stroke-linecap="round" stroke-linejoin="round"/>
</mask>
<g mask="url(#mask0_1_255)">
<path d="M-9 -7H106V108H-9V-7Z" fill="#222A2E"/>
</g>
</svg>
