<svg width="97" height="97" viewBox="0 0 97 97" fill="none" xmlns="http://www.w3.org/2000/svg">
<path d="M34.1249 0.583313C43.0207 0.583313 51.5522 4.11716 57.8425 10.4074C64.1327 16.6977 67.6666 25.2292 67.6666 34.125C67.6666 41.6479 65.2708 48.5 61.0062 54.2021L64.8395 58.0833H67.6666L96.4166 86.8333L86.8333 96.4167L58.0833 67.6666V64.8396L54.202 61.0062C48.4169 65.36 41.3652 67.6994 34.1249 67.6666C25.2291 67.6666 16.6977 64.1328 10.4074 57.8425C4.1171 51.5522 0.583252 43.0208 0.583252 34.125C0.583252 25.2292 4.1171 16.6977 10.4074 10.4074C16.6977 4.11716 25.2291 0.583313 34.1249 0.583313ZM29.3333 14.9583V29.3333H14.9583V38.9166H29.3333V53.2916H38.9166V38.9166H53.2916V29.3333H38.9166V14.9583H29.3333Z" fill="#222A2E"/>
</svg>
