<svg width="81" height="93" viewBox="0 0 81 93" fill="none" xmlns="http://www.w3.org/2000/svg">
<path d="M40.4999 0.979172C42.4062 0.979172 44.2343 1.73642 45.5822 3.08434C46.9302 4.43226 47.6874 6.26043 47.6874 8.16667V34.0513L70.1028 21.1042C71.7528 20.1661 73.7068 19.9187 75.5385 20.416C77.3702 20.9133 78.9308 22.1149 79.8798 23.7586C80.8288 25.4022 81.0892 27.3546 80.604 29.1895C80.1189 31.0245 78.9277 32.593 77.2903 33.5529L54.8749 46.5L77.2903 59.4423C78.9277 60.4022 80.1189 61.9708 80.604 63.8057C81.0892 65.6406 80.8288 67.593 79.8798 69.2367C78.9308 70.8803 77.3702 72.0819 75.5385 72.5792C73.7068 73.0765 71.7528 72.8291 70.1028 71.891L47.6874 58.9535V84.8333C47.6874 86.7396 46.9302 88.5677 45.5822 89.9157C44.2343 91.2636 42.4062 92.0208 40.4999 92.0208C38.5937 92.0208 36.7655 91.2636 35.4176 89.9157C34.0697 88.5677 33.3124 86.7396 33.3124 84.8333V58.9488L10.897 71.8958C10.0793 72.3752 9.1748 72.6881 8.23565 72.8165C7.2965 72.945 6.34123 72.8863 5.42483 72.644C4.50842 72.4018 3.649 71.9806 2.89602 71.4048C2.14305 70.829 1.51141 70.11 1.03745 69.2891C0.563497 68.4682 0.256597 67.5617 0.134419 66.6217C0.0122416 65.6817 0.0772003 64.7269 0.325555 63.8121C0.573911 62.8973 1.00076 62.0407 1.58152 61.2916C2.16228 60.5424 2.88549 59.9156 3.7095 59.4471L26.1249 46.5L3.7095 33.5577C2.07214 32.5978 0.880922 31.0292 0.395794 29.1943C-0.0893342 27.3594 0.171016 25.407 1.12003 23.7633C2.06904 22.1197 3.62967 20.9181 5.46135 20.4208C7.29303 19.9235 9.24705 20.1709 10.897 21.109L33.3124 34.0465V8.16667C33.3124 6.26043 34.0697 4.43226 35.4176 3.08434C36.7655 1.73642 38.5937 0.979172 40.4999 0.979172Z" fill="#222A2E"/>
</svg>
