<svg width="115" height="78" viewBox="0 0 115 78" fill="none" xmlns="http://www.w3.org/2000/svg">
<path d="M12.7778 0.792435C5.73003 0.792435 0 6.52904 0 13.5849V64.7546C0 71.8104 5.73003 77.547 12.7778 77.547H102.222C109.27 77.547 115 71.8104 115 64.7546V13.5849C115 6.52904 109.27 0.792435 102.222 0.792435H12.7778ZM54.3056 26.3773H99.0278C100.785 26.3773 102.222 27.8164 102.222 29.5754C102.222 31.3344 100.785 32.7735 99.0278 32.7735H54.3056C52.5486 32.7735 51.1111 31.3344 51.1111 29.5754C51.1111 27.8164 52.5486 26.3773 54.3056 26.3773ZM51.1111 48.7641C51.1111 47.0051 52.5486 45.5659 54.3056 45.5659H99.0278C100.785 45.5659 102.222 47.0051 102.222 48.7641C102.222 50.523 100.785 51.9622 99.0278 51.9622H54.3056C52.5486 51.9622 51.1111 50.523 51.1111 48.7641ZM32.7431 18.382V21.1604C34.2405 21.4002 35.658 21.74 36.9557 22.0998C39.092 22.6595 40.3498 24.8582 39.7908 26.9969C39.2318 29.1357 37.0356 30.3949 34.8993 29.8353C32.7031 29.2556 30.5868 28.8358 28.6701 28.7959C27.0929 28.7759 25.4757 29.1557 24.3776 29.7953C23.4193 30.3549 23.1398 30.9146 23.1398 31.6542C23.1398 32.014 23.1597 32.3538 24.1979 32.9934C25.4557 33.7529 27.2925 34.3326 29.8481 35.0921L29.9878 35.1321C32.224 35.8117 35.099 36.6712 37.395 38.1303C39.9705 39.7494 42.2465 42.3878 42.3064 46.4454C42.3663 50.6229 40.2101 53.6612 37.355 55.4401C35.9175 56.3396 34.3203 56.8992 32.7231 57.239V59.9574C32.7231 62.1561 30.9262 63.9551 28.73 63.9551C26.5339 63.9551 24.737 62.1561 24.737 59.9574V57.0392C22.6806 56.5994 20.7439 55.9398 19.1068 55.3601C18.6875 55.2202 18.2882 55.0803 17.8889 54.9404C15.7925 54.2408 14.6745 51.9821 15.3733 49.8834C16.072 47.7846 18.3281 46.6653 20.4245 47.3649C20.9236 47.5248 21.4028 47.7047 21.862 47.8446C24.5773 48.764 26.6536 49.4636 28.8698 49.5436C30.5868 49.6036 32.1641 49.2238 33.1424 48.6041C33.9609 48.1044 34.3403 47.5048 34.3203 46.5054C34.3203 45.9257 34.1606 45.506 33.1424 44.8664C31.8845 44.0668 30.0677 43.4872 27.5521 42.7276L27.2127 42.6277C25.0365 41.9681 22.3012 41.1486 20.105 39.8293C17.5694 38.2902 15.1936 35.7318 15.1736 31.6942C15.1536 27.4766 17.5295 24.5584 20.3247 22.9193C21.7023 22.0998 23.2196 21.5601 24.7569 21.2203V18.382C24.7569 16.1833 26.5538 14.3844 28.75 14.3844C30.9462 14.3844 32.7431 16.1833 32.7431 18.382Z" fill="#222A2E"/>
</svg>
