<svg width="93" height="67" viewBox="0 0 93 67" fill="none" xmlns="http://www.w3.org/2000/svg">
<path d="M92.6822 23.884C92.878 17.8596 91.5553 11.8827 88.8358 6.50355C87.0193 4.25966 84.4587 2.74121 81.6185 2.22367C69.9524 1.21082 58.242 0.799263 46.5336 0.990629C34.8266 0.798349 23.1175 1.20991 11.4529 2.22367C9.13834 2.65292 7.0005 3.73867 5.2835 5.34205C1.51704 8.83496 1.2435 14.815 0.675376 19.8566C0.0544972 28.9388 0.0544972 38.0528 0.675376 47.135C0.780584 49.9798 1.20563 52.8036 1.94629 55.5517C2.45129 57.6811 3.46971 59.6506 4.92158 61.2876C6.63858 62.9794 8.82692 64.1156 11.1962 64.5491C20.2686 65.6734 29.4109 66.1347 38.5504 65.9294C53.2585 66.1651 66.2118 65.9168 81.4712 64.7679C83.9084 64.35 86.1603 63.1991 87.9268 61.4686C89.0756 60.3239 89.9468 58.9352 90.4686 57.4033C91.992 52.7952 92.7411 47.964 92.6822 43.1118C92.8253 40.6079 92.8253 26.3879 92.6822 23.8798V23.884ZM61.9193 32.5531L61.9024 32.5447C58.4095 34.4805 54.3779 36.5258 50.1275 38.6847C45.7178 40.8956 41.3393 43.1683 36.9933 45.5022V19.4526C41.1469 21.6325 45.2543 23.7745 49.3868 25.9334C53.511 28.0965 57.6646 30.2848 61.9024 32.5447L61.9529 32.5153L61.9193 32.5531Z" fill="#FF4D4D"/>
</svg>
